<?xml version="1.0" encoding="UTF-8"?>
<!DOCTYPE svg PUBLIC "-//W3C//DTD SVG 1.1//EN" "http://www.w3.org/Graphics/SVG/1.1/DTD/svg11.dtd">
<svg version="1.1" xmlns="http://www.w3.org/2000/svg" xmlns:xlink="http://www.w3.org/1999/xlink" x="0" y="0" width="320" height="100" viewBox="0, 0, 320, 100">
  <g id="Layer_2"/>
  <g id="Layer_1">
    <g>
      <path d="M22.912,24.368 L33.64,24.368 Q37.168,24.368 39.652,25.448 Q42.136,26.528 43.72,28.328 Q45.304,30.128 45.988,32.468 Q46.672,34.808 46.672,37.328 L46.672,39.2 Q46.672,41.288 46.348,42.728 Q46.024,44.168 45.376,45.248 Q44.728,46.328 43.792,47.156 Q42.856,47.984 41.632,48.704 Q44.224,49.928 45.448,52.34 Q46.672,54.752 46.672,58.784 L46.672,61.664 Q46.672,68.432 43.396,72.032 Q40.12,75.632 32.92,75.632 L22.912,75.632 z M30.256,68.288 L33.424,68.288 Q35.656,68.288 36.916,67.64 Q38.176,66.992 38.824,65.84 Q39.472,64.688 39.616,63.104 Q39.76,61.52 39.76,59.648 Q39.76,57.704 39.544,56.264 Q39.328,54.824 38.644,53.852 Q37.96,52.88 36.736,52.376 Q35.512,51.872 33.496,51.872 L30.256,51.872 z M30.256,45.392 L33.568,45.392 Q37.24,45.392 38.5,43.556 Q39.76,41.72 39.76,38.192 Q39.76,34.736 38.356,33.008 Q36.952,31.28 33.28,31.28 L30.256,31.28 z" fill="#FFFFFF"/>
      <path d="M53.152,39.128 L60.496,39.128 L60.496,75.632 L53.152,75.632 z M53.152,24.368 L60.496,24.368 L60.496,31.712 L53.152,31.712 z" fill="#FFFFFF"/>
      <path d="M66.544,39.128 L73.888,39.128 L73.888,42.656 L74.032,42.656 Q75.184,40.928 76.804,39.812 Q78.424,38.696 80.944,38.696 Q82.312,38.696 83.68,39.164 Q85.048,39.632 86.128,40.712 Q87.208,41.792 87.856,43.484 Q88.504,45.176 88.504,47.624 L88.504,75.632 L81.16,75.632 L81.16,50.36 Q81.16,48.344 80.224,47.192 Q79.288,46.04 77.56,46.04 Q75.472,46.04 74.68,47.336 Q73.888,48.632 73.888,51.08 L73.888,75.632 L66.544,75.632 z" fill="#FFFFFF"/>
      <path d="M101.896,63.752 Q101.896,65.984 102.76,67.352 Q103.624,68.72 105.496,68.72 Q107.152,68.72 108.16,67.46 Q109.168,66.2 109.168,64.184 L109.168,50 Q109.168,48.272 108.124,47.156 Q107.08,46.04 105.496,46.04 Q103.408,46.04 102.652,47.336 Q101.896,48.632 101.896,50.36 z M109.168,72.32 Q108.448,73.112 107.8,73.796 Q107.152,74.48 106.36,74.984 Q105.568,75.488 104.56,75.776 Q103.552,76.064 102.184,76.064 Q97.648,76.064 95.776,72.608 Q95.128,71.384 94.84,69.584 Q94.552,67.784 94.552,64.76 L94.552,50.864 Q94.552,46.904 94.768,45.032 Q94.984,43.16 95.704,42.008 Q96.64,40.568 98.116,39.632 Q99.592,38.696 102.256,38.696 Q104.416,38.696 106.108,39.668 Q107.8,40.64 109.024,42.44 L109.168,42.44 L109.168,24.368 L116.512,24.368 L116.512,75.632 L109.168,75.632 z" fill="#FFFFFF"/>
      <path d="M135.952,36.464 Q135.952,33.368 137.032,30.992 Q138.112,28.616 139.876,27.068 Q141.64,25.52 143.836,24.728 Q146.032,23.936 148.264,23.936 Q150.496,23.936 152.692,24.728 Q154.888,25.52 156.652,27.068 Q158.416,28.616 159.496,30.992 Q160.576,33.368 160.576,36.464 L160.576,63.536 Q160.576,66.704 159.496,69.044 Q158.416,71.384 156.652,72.932 Q154.888,74.48 152.692,75.272 Q150.496,76.064 148.264,76.064 Q146.032,76.064 143.836,75.272 Q141.64,74.48 139.876,72.932 Q138.112,71.384 137.032,69.044 Q135.952,66.704 135.952,63.536 z M143.296,63.536 Q143.296,66.2 144.772,67.46 Q146.248,68.72 148.264,68.72 Q150.28,68.72 151.756,67.46 Q153.232,66.2 153.232,63.536 L153.232,36.464 Q153.232,33.8 151.756,32.54 Q150.28,31.28 148.264,31.28 Q146.248,31.28 144.772,32.54 Q143.296,33.8 143.296,36.464 z" fill="#FFFFFF"/>
      <path d="M180.448,24.368 L187.504,24.368 L196.936,51.512 L197.08,51.512 L206.44,24.368 L213.568,24.368 L213.568,75.632 L206.224,75.632 L206.224,44.456 L206.08,44.456 L198.808,66.488 L195.136,66.488 L187.936,44.456 L187.792,44.456 L187.792,75.632 L180.448,75.632 z" fill="#FFFFFF"/>
      <path d="M233.944,71.888 L233.8,71.888 Q232.36,73.904 230.884,74.984 Q229.408,76.064 226.744,76.064 Q225.448,76.064 224.08,75.668 Q222.712,75.272 221.524,74.228 Q220.336,73.184 219.58,71.276 Q218.824,69.368 218.824,66.344 Q218.824,63.248 219.328,60.908 Q219.832,58.568 221.164,57.02 Q222.496,55.472 224.728,54.716 Q226.96,53.96 230.416,53.96 Q231.208,53.96 232,54.032 Q232.792,54.104 233.944,54.176 L233.944,50.36 Q233.944,48.488 233.152,47.264 Q232.36,46.04 230.272,46.04 Q228.832,46.04 227.644,46.976 Q226.456,47.912 226.096,49.712 L218.968,49.712 Q219.328,44.744 222.28,41.792 Q223.72,40.352 225.736,39.524 Q227.752,38.696 230.272,38.696 Q232.576,38.696 234.592,39.416 Q236.608,40.136 238.084,41.576 Q239.56,43.016 240.424,45.176 Q241.288,47.336 241.288,50.216 L241.288,75.632 L233.944,75.632 z M233.944,59.936 Q232.72,59.72 231.928,59.72 Q229.552,59.72 227.86,60.836 Q226.168,61.952 226.168,64.904 Q226.168,66.992 227.176,68.288 Q228.184,69.584 229.984,69.584 Q231.856,69.584 232.9,68.36 Q233.944,67.136 233.944,64.904 z" fill="#FFFFFF"/>
      <path d="M246.688,28.04 L254.032,28.04 L254.032,39.128 L258.568,39.128 L258.568,44.888 L254.032,44.888 L254.032,65.12 Q254.032,66.416 254.284,67.136 Q254.536,67.856 255.076,68.216 Q255.616,68.576 256.48,68.648 Q257.344,68.72 258.568,68.72 L258.568,75.632 L255.544,75.632 Q253.024,75.632 251.332,74.84 Q249.64,74.048 248.632,72.824 Q247.624,71.6 247.156,70.052 Q246.688,68.504 246.688,67.064 L246.688,44.888 L243.016,44.888 L243.016,39.128 L246.688,39.128 z" fill="#FFFFFF"/>
      <path d="M261.376,39.128 L268.72,39.128 L268.72,75.632 L261.376,75.632 z M261.376,24.368 L268.72,24.368 L268.72,31.712 L261.376,31.712 z" fill="#FFFFFF"/>
      <path d="M282.544,65.12 Q282.544,66.848 283.516,67.784 Q284.488,68.72 286.144,68.72 Q288.232,68.72 288.916,67.496 Q289.6,66.272 289.744,65.048 L297.088,65.048 Q297.088,67.352 296.332,69.368 Q295.576,71.384 294.136,72.824 Q292.696,74.336 290.68,75.2 Q288.664,76.064 286.144,76.064 Q282.76,76.064 280.312,74.624 Q277.864,73.184 276.568,70.808 Q275.776,69.368 275.488,67.496 Q275.2,65.624 275.2,63.392 L275.2,51.368 Q275.2,49.136 275.488,47.264 Q275.776,45.392 276.568,43.952 Q277.864,41.576 280.312,40.136 Q282.76,38.696 286.144,38.696 Q288.664,38.696 290.716,39.56 Q292.768,40.424 294.172,41.972 Q295.576,43.52 296.332,45.68 Q297.088,47.84 297.088,50.36 L289.744,50.36 Q289.744,48.128 288.772,47.084 Q287.8,46.04 286.144,46.04 Q284.488,46.04 283.516,47.084 Q282.544,48.128 282.544,50.216 z" fill="#FFFFFF"/>
      <path d="M163.456,40.632 L178.456,49.292 L163.456,57.952 z" fill="#FFFFFF"/>
      <path d="M132.456,40.632 L117.456,49.292 L132.456,57.952 z" fill="#FFFFFF"/>
    </g>
  </g>
</svg>
