<?xml version="1.0" encoding="UTF-8"?>
<svg width="403px" height="292px" viewBox="0 0 403 292" version="1.1" xmlns="http://www.w3.org/2000/svg" xmlns:xlink="http://www.w3.org/1999/xlink">
    <!-- Generator: Sketch 41 (35326) - http://www.bohemiancoding.com/sketch -->
    <title>Untitled 12</title>
    <desc>Created with Sketch.</desc>
    <defs></defs>
    <g id="Page-1" stroke="none" stroke-width="1" fill="none" fill-rule="evenodd">
        <path d="M164,238.4 C155.99996,238.4 148.6667,236.933348 142,234 C135.3333,231.066652 129.600024,227.133358 124.8,222.2 C119.999976,217.266642 116.333346,211.333368 113.8,204.4 C111.266654,197.466632 110,190.00004 110,182 C110,174.266628 111.266654,166.866702 113.8,159.8 C116.333346,152.733298 119.866644,146.53336 124.4,141.2 C128.933356,135.86664 134.5333,131.666682 141.2,128.6 C147.8667,125.533318 155.19996,124 163.2,124 C171.20004,124 178.733298,125.399986 185.8,128.2 C192.866702,131.000014 199.599968,134.599978 206,139 C212.400032,143.400022 218.399972,148.26664 224,153.6 C229.600028,158.93336 235.06664,164.133308 240.4,169.2 C245.200024,164.133308 250.399972,158.93336 256,153.6 C261.600028,148.26664 267.466636,143.400022 273.6,139 C279.733364,134.599978 286.199966,131.000014 293,128.2 C299.800034,125.399986 307.066628,124 314.8,124 C323.066708,124 330.599966,125.466652 337.4,128.4 C344.200034,131.333348 349.999976,135.333308 354.8,140.4 C359.600024,145.466692 363.33332,151.466632 366,158.4 C368.66668,165.333368 370,172.79996 370,180.8 C370,188.80004 368.733346,196.333298 366.2,203.4 C363.666654,210.466702 360.06669,216.599974 355.4,221.8 C350.73331,227.000026 345.000034,231.066652 338.2,234 C331.399966,236.933348 323.866708,238.4 315.6,238.4 C307.866628,238.4 300.600034,237.133346 293.8,234.6 C286.999966,232.066654 280.466698,228.80002 274.2,224.8 C267.933302,220.79998 262.000028,216.266692 256.4,211.2 C250.799972,206.133308 245.466692,201.066692 240.4,196 C235.333308,200.800024 230.000028,205.733308 224.4,210.8 C218.799972,215.866692 212.800032,220.39998 206.4,224.4 C199.999968,228.40002 193.333368,231.73332 186.4,234.4 C179.466632,237.06668 172.00004,238.4 164,238.4 Z M316.8,217.2 C327.200052,217.2 335.199972,213.800034 340.8,207 C346.400028,200.199966 349.2,191.866716 349.2,182 C349.2,171.599948 346.333362,162.866702 340.6,155.8 C334.866638,148.733298 326.400056,145.2 315.2,145.2 C309.599972,145.2 304.000028,146.466654 298.4,149 C292.799972,151.533346 287.400026,154.666648 282.2,158.4 C276.999974,162.133352 272.000024,166.133312 267.2,170.4 C262.399976,174.666688 258.133352,178.666648 254.4,182.4 C258.666688,186.40002 263.13331,190.39998 267.8,194.4 C272.46669,198.40002 277.399974,202.133316 282.6,205.6 C287.800026,209.066684 293.266638,211.866656 299,214 C304.733362,216.133344 310.666636,217.2 316.8,217.2 Z M164.8,217.2 C170.13336,217.2 175.599972,216.066678 181.2,213.8 C186.800028,211.533322 192.333306,208.666684 197.8,205.2 C203.266694,201.733316 208.399976,197.933354 213.2,193.8 C218.000024,189.666646 222.266648,185.866684 226,182.4 C221.99998,178.933316 217.533358,175.000022 212.6,170.6 C207.666642,166.199978 202.400028,162.133352 196.8,158.4 C191.199972,154.666648 185.533362,151.533346 179.8,149 C174.066638,146.466654 168.53336,145.2 163.2,145.2 C158.133308,145.2 153.60002,146.266656 149.6,148.4 C145.59998,150.533344 142.200014,153.26665 139.4,156.6 C136.599986,159.93335 134.466674,163.799978 133,168.2 C131.533326,172.600022 130.8,177.199976 130.8,182 C130.8,192.400052 133.79997,200.866634 139.8,207.4 C145.80003,213.933366 154.13328,217.2 164.8,217.2 Z" id="Combined-Shape" fill="dimgrey"></path>
        <path d="M301,79.8972989 L301,286.297299 L326.2,286.297299 L326.2,176.297299 C326.2,165.363911 328.066648,155.297345 331.8,146.097299 C335.533352,136.897253 340.799966,128.963999 347.6,122.297299 C354.400034,115.630599 362.46662,110.497317 371.8,106.897299 C381.13338,103.297281 391.533276,101.763963 403,102.297299 L403,77.0972989 C384.33324,76.2972949 368.266734,80.4305869 354.8,89.4972989 C341.333266,98.5640109 331.400032,111.497215 325,128.297299 L324.2,128.297299 L324.2,79.8972989 L301,79.8972989 Z" id="b∞r" fill="whitesmoke"></path>
        <path d="M343,231.60835 C341.463866,232.461799 339.863867,233.247396 338.2,233.965142 C331.399966,236.89849 323.866708,238.365142 315.6,238.365142 C307.866628,238.365142 300.600034,237.098488 293.8,234.565142 C291.159789,233.581534 288.559793,232.487384 286,231.282685 L286,207.71409 C290.169245,210.208002 294.502552,212.291673 299,213.965142 C304.733362,216.098486 310.666636,217.165142 316.8,217.165142 C327.200052,217.165142 335.199972,213.765176 340.8,206.965142 C341.588902,206.007189 342.322236,205.018809 343,204 L343,231.60835 Z" id="Combined-Shape" fill="dimgrey"></path>
        <path d="M0,0 L0,285.6 L23.2,285.6 L23.2,246.4 L24,246.4 C29.866696,260.800072 39.399934,271.866628 52.6,279.6 C65.800066,287.333372 80.799916,291.2 97.6,291.2 C113.333412,291.2 126.999942,288.333362 138.6,282.6 C150.200058,276.866638 159.866628,269.00005 167.6,259 C175.333372,248.99995 181.066648,237.400066 184.8,224.2 C188.533352,210.999934 190.4,197.06674 190.4,182.4 C190.4,167.73326 188.533352,153.800066 184.8,140.6 C181.066648,127.399934 175.333372,115.80005 167.6,105.8 C159.866628,95.79995 150.200058,87.866696 138.6,82 C126.999942,76.133304 113.333412,73.2 97.6,73.2 C90.133296,73.2 82.666704,74.133324 75.2,76 C67.733296,77.866676 60.800032,80.733314 54.4,84.6 C47.999968,88.466686 42.333358,93.199972 37.4,98.8 C32.466642,104.400028 28.66668,110.933296 26,118.4 L25.2,118.4 L25.2,0 L0,0 Z M165.2,182.4 C165.2,193.06672 163.933346,203.666614 161.4,214.2 C158.866654,224.733386 154.866694,234.133292 149.4,242.4 C143.933306,250.666708 136.933376,257.399974 128.4,262.6 C119.866624,267.800026 109.60006,270.4 97.6,270.4 C84.2666,270.4 73.000046,267.800026 63.8,262.6 C54.599954,257.399974 47.133362,250.666708 41.4,242.4 C35.666638,234.133292 31.533346,224.733386 29,214.2 C26.466654,203.666614 25.2,193.06672 25.2,182.4 C25.2,171.73328 26.466654,161.133386 29,150.6 C31.533346,140.066614 35.666638,130.666708 41.4,122.4 C47.133362,114.133292 54.599954,107.400026 63.8,102.2 C73.000046,96.999974 84.2666,94.4 97.6,94.4 C109.60006,94.4 119.866624,96.999974 128.4,102.2 C136.933376,107.400026 143.933306,114.133292 149.4,122.4 C154.866694,130.666708 158.866654,140.066614 161.4,150.6 C163.933346,161.133386 165.2,171.73328 165.2,182.4 Z" id="Combined-Shape" fill="whitesmoke"></path>
        <path d="M143,127.815924 C149.180317,125.271963 155.913595,124 163.2,124 C171.20004,124 178.733298,125.399986 185.8,128.2 C189.631335,129.718076 193.364657,131.471294 197,133.45967 L197,158.53357 C196.933381,158.488999 196.866714,158.444476 196.8,158.4 C191.199972,154.666648 185.533362,151.533346 179.8,149 C174.066638,146.466654 168.53336,145.2 163.2,145.2 C158.133308,145.2 153.60002,146.266656 149.6,148.4 C147.180458,149.690422 144.980466,151.20036 143,152.929832 L143,127.815924 Z" id="Combined-Shape" fill="dimgrey"></path>
    </g>
</svg>