<?xml version="1.0" encoding="UTF-8"?>
<svg width="512px" height="512px" viewBox="0 0 512 512" version="1.1" xmlns="http://www.w3.org/2000/svg" xmlns:xlink="http://www.w3.org/1999/xlink">
    <title>bindinator-logo-mono</title>
    <g id="Page-1" stroke="none" stroke-width="1" fill="none" fill-rule="evenodd">
        <polygon id="backdrop-copy-3" fill="#848484" fill-rule="nonzero" points="-96 -83 582 -83 582 595 -96 595"></polygon>
        <g id="Group" fill-rule="nonzero">
            <g id="logo" transform="translate(-182.000000, -64.000000)">
                <path d="M304.283074,448 C285.33982,448 268.475568,444.646744 253.690318,437.940233 C238.905723,431.233721 226.200131,422.214868 215.573539,410.883674 C204.946948,399.551824 196.861541,386.023216 191.317318,370.297852 C185.772439,354.572488 183,337.690953 183,319.653247 C183,301.615542 185.656648,284.849591 190.969943,269.355395 C196.283239,253.861199 204.022255,240.448176 214.186992,229.116326 C224.351728,217.785132 236.826722,208.766279 251.611972,202.059767 C266.396567,195.353256 283.029563,192 301.510962,192 C316.757411,192 330.73376,194.312669 343.440009,198.938008 C356.145602,203.563347 367.927157,209.69161 378.784676,217.322795 C389.642194,224.95398 399.806931,233.741665 409.278886,243.685848 C418.750184,253.630031 428.106019,264.152135 437.346391,275.252161 C446.124908,264.614472 455.250144,254.207952 464.722098,244.0326 C474.193397,233.857249 484.357806,224.95398 495.215324,217.322795 C506.073499,209.69161 517.855382,203.563347 530.560975,198.938008 C543.266568,194.312669 557.01199,192 571.79724,192 C590.277983,192 606.91098,195.237672 621.69623,201.713015 C636.480824,208.188358 648.95549,217.091626 659.120226,228.42282 C669.284963,239.754671 677.139443,253.051782 682.683666,268.314152 C688.227889,283.57718 691,300.227546 691,318.265252 C691,336.303614 688.227889,353.185477 682.683666,368.910841 C677.139443,384.636206 669.284963,398.395653 659.120226,410.189184 C648.95549,421.983371 636.365033,431.233721 621.348855,437.940233 C606.333333,444.646744 589.584873,448 571.103474,448 C556.780734,448 543.382032,445.802915 530.907366,441.408744 C518.432701,437.01523 506.766609,431.234049 495.90909,424.065201 C485.050916,416.895696 474.770715,408.570348 465.068489,399.089159 C455.365607,389.607969 446.124908,379.779698 437.346391,369.604347 C427.644165,379.779698 418.172866,389.607969 408.932495,399.089159 C399.691467,408.570348 389.873121,416.895696 379.477458,424.065201 C369.081794,431.234049 357.762093,437.01523 345.518354,441.408744 C333.274616,445.802915 319.529523,448 304.283074,448 Z M303.589308,377.929366 C312.367825,377.929366 321.146342,376.194946 329.924858,372.726106 C338.703375,369.257266 347.020038,364.863424 354.874846,359.544579 C362.728997,354.225735 370.121294,348.213057 377.051737,341.506545 C383.98218,334.800034 390.21984,328.209435 395.764719,321.734748 C390.21984,315.721742 383.751252,309.130815 376.358955,301.961966 C368.966658,294.793118 361.227642,288.202519 353.141907,282.190169 C345.056828,276.177163 336.62503,271.205071 327.846513,267.273894 C319.067996,263.342717 310.289479,261.377129 301.510962,261.377129 C285.339492,261.377129 272.518108,267.505391 263.046809,279.761915 C253.57551,292.01844 248.839861,305.777887 248.839861,321.040258 C248.839861,337.690953 253.690974,351.335144 263.3932,361.972833 C273.096082,372.610522 286.494785,377.929366 303.589308,377.929366 Z M572.490022,377.929366 C589.585201,377.929366 602.752976,372.379353 611.993348,361.279328 C621.233719,350.178646 625.853905,336.534454 625.853905,320.346753 C625.853905,304.159051 620.887328,290.283691 610.954175,278.720672 C601.020366,267.15831 587.505871,261.377129 570.410692,261.377129 C561.170321,261.377129 552.27634,263.342717 543.728751,267.273894 C535.181161,271.205071 527.095754,276.177163 519.472529,282.190169 C511.848649,288.202519 504.571487,294.793118 497.641045,301.961966 C490.710602,309.130815 484.473269,315.721742 478.929047,321.734748 C484.93578,328.672428 491.404368,335.494196 498.334811,342.200051 C505.265253,348.906562 512.657551,354.91924 520.511702,360.238085 C528.36651,365.556929 536.567381,369.835187 545.114314,373.072858 C553.661904,376.31053 562.78714,377.929366 572.490022,377.929366 Z" id="Shape" fill="#E5E5E5"></path>
                <path d="M512,145.702752 L512,504 L610.504972,504 L610.504972,342.523965 C610.504972,326.352711 612.12364,311.336735 615.360976,297.476035 C618.598311,283.615992 624.032176,271.488207 631.66257,261.092683 C639.292964,250.697158 649.35136,242.496069 661.837758,236.489416 C674.324812,230.483419 689.586257,227.480421 707.622092,227.480421 C713.633818,227.480421 719.877017,227.826807 726.351689,228.519579 C732.82636,229.213008 738.375797,230.021571 743,230.945267 L743,139.464847 C735.138462,137.154949 727.970356,136 721.495685,136 C709.009287,136 696.985178,137.84805 685.423358,141.544149 C673.862195,145.240248 662.994465,150.43801 652.820169,157.137436 C642.645872,163.836861 633.627955,171.92216 625.766417,181.393332 C617.904221,190.86516 611.661023,201.145223 607.03682,212.23352 L605.648968,212.23352 L605.648968,145.702752 L512,145.702752 Z" id="Path" fill="#383838"></path>
                <path d="M266.973147,321.144397 C266.973147,336.168523 265.329685,350.72333 262.042759,364.808818 C258.755178,378.894306 253.589259,391.336355 246.545004,402.134967 C239.500748,412.933579 230.695593,421.502021 220.129538,427.840293 C209.563483,434.178566 196.766779,437.347702 181.739428,437.347702 C167.181169,437.347702 154.501575,434.178566 143.700646,427.840293 C132.899716,421.502021 123.977124,412.933579 116.932869,402.134967 C109.888613,391.336355 104.723023,378.894306 101.436097,364.808818 C98.1485156,350.72333 96.5047248,336.168523 96.5047248,321.144397 C96.5047248,305.650623 98.1485156,290.860992 101.436097,276.775504 C104.723023,262.690672 109.888613,250.248951 116.932869,239.450339 C123.977124,228.651072 132.899716,220.082302 143.700646,213.744029 C154.501575,207.405756 167.181169,204.23662 181.739428,204.23662 C196.766779,204.23662 209.563483,207.405756 220.129538,213.744029 C230.695593,220.082302 239.500748,228.651072 246.545004,239.450339 C253.589259,250.248951 258.755178,262.690672 262.042759,276.775504 C265.329685,290.860992 266.973147,305.650623 266.973147,321.144397 Z M0,0 L0,502.844827 L95.0964642,502.844827 L95.0964642,456.363504 L96.5047248,456.363504 C107.305654,476.552441 123.272502,490.872424 144.405268,499.323455 C165.537378,507.774485 189.487322,512 216.255099,512 C234.570032,512 252.650091,508.243804 270.495275,500.731413 C288.34046,493.219678 304.424745,481.716923 318.74813,466.223149 C333.070859,450.729375 344.693519,430.892346 353.616112,406.712062 C362.538704,382.532434 367,353.775055 367,320.439926 C367,287.104796 362.538704,258.347417 353.616112,234.167789 C344.693519,209.988161 333.070859,190.15146 318.74813,174.657686 C304.424745,159.163912 288.34046,147.660829 270.495275,140.148438 C252.650091,132.636703 234.570032,128.880835 216.255099,128.880835 C193.713744,128.880835 171.994448,133.223762 151.097212,141.909616 C130.19932,150.59547 113.645615,164.328394 101.436097,183.108388 L100.026853,183.108388 L100.026853,0 L0,0 Z" id="Shape" fill="#383838"></path>
                <path d="M364.673372,290.667143 C361.333455,287.630126 357.716031,284.938874 354.141907,282.191472 C346.056828,276.179169 337.62503,271.207445 328.846513,267.276299 C320.067996,263.344496 311.289479,261.378595 302.510962,261.378595 C286.339492,261.378595 273.518108,267.506809 264.046809,279.763237 L263.166071,280.948294 L263.166071,280.948294 C254.2406,292.48758 250.121303,306.601879 249.839861,321.04224 C249.826084,335.294451 253.726918,349.690483 263.20937,360.610151 L262.265651,364.942555 C258.978874,379.044376 253.813516,391.501104 246.769578,402.312741 C241.887631,409.852582 235.864168,416.604355 228.751345,422.085368 C219.195089,413.751549 223.169728,417.574664 216.573539,410.883966 C205.946948,399.552861 197.861541,386.024688 192.317318,370.299448 C186.772439,354.574207 184,337.692804 184,319.655241 C184,301.61702 186.656648,284.850873 191.969943,269.356799 C197.283895,253.863381 205.022911,240.450792 215.186992,229.11903 C221.460407,222.492363 217.693406,226.248492 226.744837,218.11366 L226.744837,218.11366 C234.411688,211.340215 243.490673,206.539896 252.611972,202.062685 C267.396567,195.356226 284.029563,192.002996 302.510962,192.002996 L302.510962,192.002996 C311.618485,191.937981 320.682709,192.933902 329.609163,194.712965 C338.523809,196.771793 341.467148,197.935178 344.440009,198.939965 C357.145602,203.565268 368.927157,209.69381 379.784676,217.325592 C390.642194,224.956718 400.806931,233.744333 410.278886,243.688438 C419.750184,253.631886 429.106019,264.153908 438.346391,275.254503 C447.124908,264.616898 456.250144,254.21046 465.722098,244.035188 C475.193397,233.859916 485.357806,224.956718 496.215324,217.325592 C501.281292,213.721166 506.615909,210.520625 512.126673,207.654027 L512.126673,289.247636 C502.064607,298.361643 506.517502,294.079478 498.641045,301.964099 C491.710602,309.132891 485.473269,315.723438 479.929047,321.73574 C485.93578,328.673366 492.404368,335.495408 499.334811,342.201867 C506.984933,349.295464 502.755421,345.585634 512.126673,353.208222 L512.126673,353.208222 C515.068044,355.800966 518.319395,357.978989 521.511702,360.239759 C529.36651,365.558562 537.567381,369.836786 546.114314,373.074432 C554.661904,376.312078 563.78714,377.930901 573.490022,377.930901 C588.403529,377.827467 599.663202,374.272296 610.539089,363.938753 C611.864625,362.67883 611.009473,363.529943 612.993348,361.280009 C622.233719,350.180071 626.853905,336.536315 626.853905,320.348741 C626.940503,308.824231 624.097539,297.557813 618.275809,287.618305 C621.042016,277.978263 626.008593,269.225782 631.676808,261.031845 C639.300033,250.625407 649.348978,242.416036 661.823643,236.403734 C664.571153,235.1379 663.387323,235.634383 665.348564,234.85124 C673.47891,244.81439 679.055607,256.403916 683.683666,268.316549 C689.227889,283.579457 692,300.229692 692,318.267256 C692,336.30482 689.227889,353.186222 683.683666,368.911463 C678.139443,384.636704 670.284963,398.396371 660.120226,410.190466 C649.95549,421.984561 637.365033,431.234838 622.348855,437.941297 C618.521826,439.700659 614.550139,441.096524 610.539089,442.367284 L605.862812,443.77694 C594.858012,446.863212 583.472378,447.727131 572.103474,448 C557.780734,448 544.382032,445.80326 531.907366,441.409781 C525.074018,439.130294 518.568363,436.056829 512.126673,432.864168 L512.126673,432.864168 C506.803865,430.389635 501.855986,427.204855 496.90909,424.065389 C486.050916,416.896597 475.770715,408.571643 466.068489,399.090528 C456.365607,389.608756 447.124908,379.780563 438.346391,369.605948 C428.644165,379.780563 419.172866,389.608756 409.932495,399.090528 C400.691467,408.571643 390.873121,416.896597 380.477458,424.065389 C370.081794,431.234181 358.762093,437.015645 346.518354,441.409781 C339.819823,443.629178 343.443151,442.551495 335.616881,444.536441 C343.183358,432.772556 348.882079,419.940838 353.835863,406.896342 C360.50684,389.309619 363.646008,370.744706 365.725337,352.135465 C374.631127,344.892134 370.549225,348.465038 378.051737,341.508367 C384.98218,334.801908 391.21984,328.211033 396.764719,321.73574 C391.21984,315.723438 384.751252,309.132891 377.358955,301.964099 C369.914503,294.971965 373.702169,298.358687 365.999892,291.799006 L364.673372,290.667143 Z" id="Path" fill="#E5E5E5"></path>
                <path d="M606,196 C610.378024,197.118227 607.696103,196.383782 614,198.372824 C611.319032,202.66066 609.338815,207.354682 607.342391,212 L606,211.999026 L606,196 Z" id="Path" fill="#E5E5E5"></path>
            </g>
        </g>
    </g>
</svg>