<?xml version="1.0" encoding="UTF-8"?>
<svg width="469px" height="431px" viewBox="0 0 469 431" version="1.1" xmlns="http://www.w3.org/2000/svg" xmlns:xlink="http://www.w3.org/1999/xlink">
    <!-- Generator: Sketch 41 (35326) - http://www.bohemiancoding.com/sketch -->
    <title>bindinator-logo</title>
    <desc>Created with Sketch.</desc>
    <defs></defs>
    <g id="bindinator-logo" stroke="none" stroke-width="1" fill="none" fill-rule="evenodd">
        <g id="Group">
            <path d="M190.858561,277.703784 C181.548341,277.703784 173.0141,275.995332 165.255583,272.578378 C157.497066,269.161424 150.824842,264.579668 145.23871,258.832973 C139.652578,253.086278 135.385457,246.174815 132.437221,238.098378 C129.488984,230.021942 128.014888,221.324371 128.014888,212.005405 C128.014888,202.997072 129.488984,194.377158 132.437221,186.145405 C135.385457,177.913653 139.49741,170.691563 144.773201,164.478919 C150.048992,158.266275 156.566049,153.373892 164.324566,149.801622 C172.083083,146.229352 180.617323,144.443243 189.927543,144.443243 C199.237764,144.443243 208.004756,146.074038 216.228784,149.335676 C224.452812,152.597314 232.288797,156.790785 239.736973,161.916216 C247.185149,167.041647 254.167709,172.7106 260.684864,178.923243 C267.202018,185.135887 273.563906,191.193124 279.77072,197.095135 C285.356852,191.193124 291.408404,185.135887 297.925558,178.923243 C304.442712,172.7106 311.270105,167.041647 318.40794,161.916216 C325.545776,156.790785 333.071424,152.597314 340.985112,149.335676 C348.898799,146.074038 357.355455,144.443243 366.355335,144.443243 C375.975896,144.443243 384.742888,146.151695 392.656576,149.568649 C400.570263,152.985603 407.320071,157.645016 412.906203,163.547027 C418.492336,169.449039 422.83704,176.438158 425.940447,184.514595 C429.043853,192.591031 430.595533,201.288602 430.595533,210.607568 C430.595533,219.926533 429.121437,228.701761 426.173201,236.933514 C423.224965,245.165266 419.035428,252.309699 413.604467,258.367027 C408.173505,264.424355 401.50128,269.161424 393.587593,272.578378 C385.673906,275.995332 376.906913,277.703784 367.286352,277.703784 C358.286473,277.703784 349.829816,276.228303 341.916129,273.277297 C334.002442,270.326292 326.399209,266.521104 319.106203,261.861622 C311.813198,257.202139 304.908221,251.921471 298.391067,246.019459 C291.873913,240.117448 285.667192,234.215525 279.77072,228.313514 C273.874247,233.904893 267.667526,239.651502 261.150372,245.553514 C254.633218,251.455525 247.650658,256.736193 240.202481,261.395676 C232.754305,266.055158 224.995905,269.938002 216.927047,273.044324 C208.85819,276.150646 200.168781,277.703784 190.858561,277.703784 Z M368.682878,253.008649 C380.786165,253.008649 390.096245,249.048148 396.6134,241.127027 C403.130554,233.205906 406.389082,223.498796 406.389082,212.005405 C406.389082,199.89075 403.05297,189.717699 396.380645,181.485946 C389.708321,173.254193 379.855152,169.138378 366.820844,169.138378 C360.303689,169.138378 353.786633,170.613859 347.269479,173.564865 C340.752325,176.515871 334.46802,180.165744 328.416377,184.514595 C322.364734,188.863445 316.545934,193.522858 310.959801,198.492973 C305.373669,203.463088 300.408293,208.122501 296.063524,212.471351 C301.028974,217.130834 306.227103,221.790247 311.658065,226.44973 C317.089026,231.109212 322.830243,235.457998 328.881886,239.496216 C334.933529,243.534435 341.295417,246.796024 347.967742,249.281081 C354.640066,251.766139 361.545043,253.008649 368.682878,253.008649 Z M191.789578,253.008649 C197.996392,253.008649 204.35828,251.688482 210.875434,249.048108 C217.392588,246.407735 223.832061,243.068489 230.194045,239.03027 C236.556029,234.992052 242.529997,230.56561 248.116129,225.750811 C253.702261,220.936012 258.667637,216.50957 263.012407,212.471351 C258.357297,208.433133 253.159168,203.851377 247.417866,198.725946 C241.676564,193.600515 235.547427,188.863445 229.030273,184.514595 C222.513119,180.165744 215.918478,176.515871 209.246154,173.564865 C202.573829,170.613859 196.134357,169.138378 189.927543,169.138378 C184.031071,169.138378 178.755358,170.380888 174.100248,172.865946 C169.445138,175.351003 165.488354,178.534936 162.229777,182.417838 C158.9712,186.30074 156.488511,190.804839 154.781638,195.93027 C153.074764,201.055701 152.22134,206.414026 152.22134,212.005405 C152.22134,224.120061 155.71262,233.982484 162.695285,241.592973 C169.677951,249.203461 179.375951,253.008649 191.789578,253.008649 Z" id="Combined-Shape" fill="crimson"></path>
            <path d="M350.295285,93.0695563 L350.295285,333.497664 L379.622333,333.497664 L379.622333,205.362529 C379.622333,192.62661 381.794685,180.900421 386.139454,170.18361 C390.484224,159.4668 396.61336,150.225631 404.527047,142.459827 C412.440734,134.694022 421.828399,128.714442 432.690323,124.520908 C443.552246,120.327373 455.655351,118.541265 469,119.162529 L469,89.8079347 C447.276153,88.8760382 428.578408,93.6907648 412.906203,104.252259 C397.233999,114.813753 385.673983,129.879188 378.225806,149.449016 L377.294789,149.449016 L377.294789,93.0695563 L350.295285,93.0695563 Z" id="b∞r" fill="lightskyblue"></path>
            <path d="M399.173697,269.79243 C397.385988,270.786582 395.523954,271.701696 393.587593,272.537774 C385.673906,275.954728 376.906913,277.663179 367.286352,277.663179 C358.286473,277.663179 349.829816,276.187698 341.916129,273.236693 C338.843526,272.090922 335.817724,270.816385 332.83871,269.413073 L332.83871,241.958845 C337.690759,244.863916 342.733739,247.291111 347.967742,249.240476 C354.640066,251.725534 361.545043,252.968044 368.682878,252.968044 C380.786165,252.968044 390.096245,249.007543 396.6134,241.086422 C397.531502,239.970537 398.384934,238.819207 399.173697,237.632432 L399.173697,269.79243 Z" id="Combined-Shape" fill="crimson"></path>
            <path d="M0,0 L0,332.685405 L26.9995037,332.685405 L26.9995037,287.022703 L27.9305211,287.022703 C34.7580159,303.796841 45.8525287,316.687883 61.2143921,325.696216 C76.5762555,334.70455 94.0326566,339.208649 113.584119,339.208649 C131.894219,339.208649 147.79894,335.869403 161.298759,329.190811 C174.798579,322.512219 186.048259,313.348707 195.048139,301.7 C204.048019,290.051293 210.720243,276.538996 215.065012,261.162703 C219.409782,245.78641 221.582134,229.556121 221.582134,212.471351 C221.582134,195.386581 219.409782,179.156293 215.065012,163.78 C210.720243,148.403707 204.048019,134.89141 195.048139,123.242703 C186.048259,111.593996 174.798579,102.352827 161.298759,95.5189189 C147.79894,88.6850109 131.894219,85.2681081 113.584119,85.2681081 C104.89458,85.2681081 96.2051717,86.3553044 87.5156328,88.5297297 C78.8260939,90.704155 70.7573573,94.0434009 63.3091811,98.5475676 C55.8610049,103.051734 49.2663645,108.565373 43.525062,115.088649 C37.7837595,121.611925 33.3614713,129.222299 30.2580645,137.92 L29.3270471,137.92 L29.3270471,0 L0,0 Z M192.255087,212.471351 C192.255087,224.896639 190.780991,237.244083 187.832754,249.514054 C184.884518,261.784025 180.229478,272.733646 173.867494,282.363243 C167.50551,291.992841 159.359189,299.836186 149.428288,305.893514 C139.497386,311.950841 127.549449,314.979459 113.584119,314.979459 C98.0670854,314.979459 84.9553885,311.950841 74.2486352,305.893514 C63.541882,299.836186 54.8524734,291.992841 48.1801489,282.363243 C41.5078244,272.733646 36.6976161,261.784025 33.7493797,249.514054 C30.8011432,237.244083 29.3270471,224.896639 29.3270471,212.471351 C29.3270471,200.046064 30.8011432,187.69862 33.7493797,175.428649 C36.6976161,163.158677 41.5078244,152.209057 48.1801489,142.579459 C54.8524734,132.949862 63.541882,125.106517 74.2486352,119.049189 C84.9553885,112.991862 98.0670854,109.963243 113.584119,109.963243 C127.549449,109.963243 139.497386,112.991862 149.428288,119.049189 C159.359189,125.106517 167.50551,132.949862 173.867494,142.579459 C180.229478,152.209057 184.884518,163.158677 187.832754,175.428649 C190.780991,187.69862 192.255087,200.046064 192.255087,212.471351 Z" id="Combined-Shape" fill="lightskyblue"></path>
            <path d="M166.419355,148.888279 C173.611833,145.924908 181.447831,144.443243 189.927543,144.443243 C199.237764,144.443243 208.004756,146.074038 216.228784,149.335676 C220.687583,151.104029 225.032318,153.146291 229.263027,155.46248 L229.263027,184.670185 C229.185498,184.618267 229.107913,184.566403 229.030273,184.514595 C222.513119,180.165744 215.918478,176.515871 209.246154,173.564865 C202.573829,170.613859 196.134357,169.138378 189.927543,169.138378 C184.031071,169.138378 178.755358,170.380888 174.100248,172.865946 C171.284454,174.369114 168.724165,176.127987 166.419355,178.142589 L166.419355,148.888279 Z" id="Combined-Shape" fill="crimson"></path>
        </g>
        <path d="M1.6292804,353.816054 L1.6292804,428.67027 L7.70416873,428.67027 L7.70416873,418.396162 L7.91364764,418.396162 C9.44983398,422.170343 11.9460993,425.070828 15.4025186,427.097703 C18.8589379,429.124578 22.7866281,430.138 27.1857072,430.138 C31.3054797,430.138 34.8840419,429.38667 37.9215012,427.883986 C40.9589606,426.381303 43.4901388,424.319513 45.5151117,421.698554 C47.5400846,419.077595 49.0413351,416.037328 50.0189082,412.577662 C50.9964813,409.117996 51.4852605,405.466181 51.4852605,401.622108 C51.4852605,397.778035 50.9964813,394.12622 50.0189082,390.666554 C49.0413351,387.206888 47.5400846,384.166621 45.5151117,381.545662 C43.4901388,378.924703 40.9589606,376.84544 37.9215012,375.307811 C34.8840419,373.770182 31.3054797,373.001378 27.1857072,373.001378 C25.2305609,373.001378 23.275444,373.245998 21.3202978,373.735243 C19.3651515,374.224489 17.5496858,374.975819 15.8738462,375.989257 C14.1980065,377.002694 12.7142124,378.243263 11.4224194,379.711 C10.1306263,381.178737 9.13561143,382.891071 8.43734491,384.848054 L8.227866,384.848054 L8.227866,353.816054 L1.6292804,353.816054 Z M44.8866749,401.622108 C44.8866749,404.417798 44.5550033,407.195973 43.8916501,409.956716 C43.2282969,412.71746 42.1809129,415.181124 40.7494665,417.347784 C39.3180201,419.514443 37.485098,421.279196 35.2506452,422.642095 C33.0161923,424.004993 30.3279065,424.686432 27.1857072,424.686432 C23.6943746,424.686432 20.7442428,424.004993 18.3352233,422.642095 C15.9262038,421.279196 13.9710869,419.514443 12.4698139,417.347784 C10.9685409,415.181124 9.88624401,412.71746 9.22289082,409.956716 C8.55953763,407.195973 8.227866,404.417798 8.227866,401.622108 C8.227866,398.826418 8.55953763,396.048244 9.22289082,393.2875 C9.88624401,390.526756 10.9685409,388.063092 12.4698139,385.896432 C13.9710869,383.729773 15.9262038,381.96502 18.3352233,380.602122 C20.7442428,379.239223 23.6943746,378.557784 27.1857072,378.557784 C30.3279065,378.557784 33.0161923,379.239223 35.2506452,380.602122 C37.485098,381.96502 39.3180201,383.729773 40.7494665,385.896432 C42.1809129,388.063092 43.2282969,390.526756 43.8916501,393.2875 C44.5550033,396.048244 44.8866749,398.826418 44.8866749,401.622108 Z M61.8544665,353.816054 L61.8544665,364.404676 L68.4530521,364.404676 L68.4530521,353.816054 L61.8544665,353.816054 Z M61.8544665,374.573946 L61.8544665,428.67027 L68.4530521,428.67027 L68.4530521,374.573946 L61.8544665,374.573946 Z M81.0217866,374.573946 L81.0217866,428.67027 L87.6203722,428.67027 L87.6203722,397.114081 C87.6901989,394.458176 88.1266089,391.994511 88.9296154,389.723014 C89.7326219,387.451516 90.8498316,385.494562 92.2812779,383.852095 C93.7127243,382.209627 95.4583644,380.91664 97.5182506,379.973095 C99.5781369,379.029549 101.934751,378.557784 104.588164,378.557784 C107.241577,378.557784 109.458539,378.977131 111.239119,379.815838 C113.019699,380.654545 114.433667,381.807749 115.481067,383.275486 C116.528467,384.743224 117.261636,386.473031 117.680596,388.464959 C118.099555,390.456888 118.309032,392.606043 118.309032,394.912486 L118.309032,428.67027 L124.907618,428.67027 L124.907618,393.864108 C124.907618,390.649065 124.593403,387.74858 123.964963,385.162568 C123.336523,382.576555 122.254226,380.392455 120.71804,378.610203 C119.181853,376.827951 117.139454,375.447599 114.590782,374.469108 C112.042109,373.490617 108.8825,373.001378 105.111861,373.001378 C101.271395,373.001378 97.7452022,373.997328 94.5331762,375.989257 C91.3211502,377.981186 89.0867309,380.619578 87.8298511,383.904514 L87.6203722,383.904514 L87.6203722,374.573946 L81.0217866,374.573946 Z M184.923325,428.67027 L184.923325,353.816054 L178.324739,353.816054 L178.324739,384.848054 L178.115261,384.848054 C177.416994,382.891071 176.421979,381.178737 175.130186,379.711 C173.838393,378.243263 172.354599,377.002694 170.678759,375.989257 C169.00292,374.975819 167.20491,374.224489 165.284677,373.735243 C163.364444,373.245998 161.391871,373.001378 159.366898,373.001378 C155.247126,373.001378 151.668564,373.770182 148.631104,375.307811 C145.593645,376.84544 143.062467,378.924703 141.037494,381.545662 C139.012521,384.166621 137.51127,387.206888 136.533697,390.666554 C135.556124,394.12622 135.067345,397.778035 135.067345,401.622108 C135.067345,405.466181 135.556124,409.117996 136.533697,412.577662 C137.51127,416.037328 139.012521,419.077595 141.037494,421.698554 C143.062467,424.319513 145.593645,426.381303 148.631104,427.883986 C151.668564,429.38667 155.247126,430.138 159.366898,430.138 C161.322045,430.138 163.294618,429.858435 165.284677,429.299297 C167.274737,428.740159 169.142572,427.953883 170.888238,426.940446 C172.633905,425.927008 174.187524,424.68644 175.549144,423.218703 C176.910764,421.750966 177.940691,420.143468 178.638958,418.396162 L178.848437,418.396162 L178.848437,428.67027 L184.923325,428.67027 Z M141.665931,401.622108 C141.665931,398.826418 141.997602,396.048244 142.660955,393.2875 C143.324309,390.526756 144.371693,388.063092 145.803139,385.896432 C147.234585,383.729773 149.067507,381.96502 151.30196,380.602122 C153.536413,379.239223 156.224699,378.557784 159.366898,378.557784 C162.858231,378.557784 165.808363,379.239223 168.217382,380.602122 C170.626402,381.96502 172.581519,383.729773 174.082792,385.896432 C175.584065,388.063092 176.666361,390.526756 177.329715,393.2875 C177.993068,396.048244 178.324739,398.826418 178.324739,401.622108 C178.324739,404.417798 177.993068,407.195973 177.329715,409.956716 C176.666361,412.71746 175.584065,415.181124 174.082792,417.347784 C172.581519,419.514443 170.626402,421.279196 168.217382,422.642095 C165.808363,424.004993 162.858231,424.686432 159.366898,424.686432 C156.224699,424.686432 153.536413,424.004993 151.30196,422.642095 C149.067507,421.279196 147.234585,419.514443 145.803139,417.347784 C144.371693,415.181124 143.324309,412.71746 142.660955,409.956716 C141.997602,407.195973 141.665931,404.417798 141.665931,401.622108 Z" id="bind" fill="crimson"></path>
        <path d="M197.247667,353.816054 L197.247667,364.404676 L203.846253,364.404676 L203.846253,353.816054 L197.247667,353.816054 Z M197.247667,374.573946 L197.247667,428.67027 L203.846253,428.67027 L203.846253,374.573946 L197.247667,374.573946 Z M216.414988,374.573946 L216.414988,428.67027 L223.013573,428.67027 L223.013573,397.114081 C223.0834,394.458176 223.51981,391.994511 224.322816,389.723014 C225.125823,387.451516 226.243033,385.494562 227.674479,383.852095 C229.105925,382.209627 230.851565,380.91664 232.911452,379.973095 C234.971338,379.029549 237.327952,378.557784 239.981365,378.557784 C242.634778,378.557784 244.85174,378.977131 246.63232,379.815838 C248.4129,380.654545 249.826868,381.807749 250.874268,383.275486 C251.921668,384.743224 252.654837,386.473031 253.073797,388.464959 C253.492756,390.456888 253.702233,392.606043 253.702233,394.912486 L253.702233,428.67027 L260.300819,428.67027 L260.300819,393.864108 C260.300819,390.649065 259.986604,387.74858 259.358164,385.162568 C258.729724,382.576555 257.647427,380.392455 256.111241,378.610203 C254.575054,376.827951 252.532655,375.447599 249.983983,374.469108 C247.43531,373.490617 244.275701,373.001378 240.505062,373.001378 C236.664596,373.001378 233.138403,373.997328 229.926377,375.989257 C226.714351,377.981186 224.479932,380.619578 223.223052,383.904514 L223.013573,383.904514 L223.013573,374.573946 L216.414988,374.573946 Z M272.136377,391.138324 L278.734963,391.138324 C278.874616,386.735113 280.271128,383.537591 282.924541,381.545662 C285.577954,379.553733 288.999408,378.557784 293.189007,378.557784 C295.144154,378.557784 296.977076,378.715039 298.687829,379.029554 C300.398582,379.344069 301.899832,379.920671 303.191625,380.759378 C304.483418,381.598085 305.49589,382.733817 306.229069,384.166608 C306.962249,385.599399 307.328834,387.434043 307.328834,389.670595 C307.328834,391.138332 307.136813,392.326482 306.752767,393.235081 C306.36872,394.14368 305.827572,394.860065 305.129305,395.384257 C304.431039,395.908449 303.558219,396.275377 302.510819,396.485054 C301.463419,396.694731 300.241471,396.869459 298.844938,397.009243 C295.283779,397.428597 291.775042,397.865417 288.318623,398.319716 C284.862204,398.774016 281.754964,399.560292 278.996811,400.678568 C276.238659,401.796843 274.021696,403.421814 272.345856,405.553527 C270.670016,407.68524 269.832109,410.638143 269.832109,414.412324 C269.832109,417.138122 270.303432,419.496949 271.246092,421.488878 C272.188752,423.480807 273.480525,425.12325 275.121452,426.416257 C276.762378,427.709263 278.682582,428.652794 280.882122,429.246878 C283.081661,429.840962 285.438275,430.138 287.952035,430.138 C290.605448,430.138 292.892236,429.893381 294.812469,429.404135 C296.732702,428.914889 298.443429,428.215978 299.944702,427.307378 C301.445975,426.398779 302.807575,425.263047 304.029541,423.900149 C305.251507,422.53725 306.455999,420.982171 307.643052,419.234865 L307.852531,419.234865 C307.852531,420.63271 307.939813,421.908224 308.11438,423.061446 C308.288946,424.214668 308.655531,425.210617 309.214144,426.049324 C309.772757,426.888031 310.558295,427.534525 311.570782,427.988824 C312.583268,428.443124 313.927411,428.67027 315.603251,428.67027 C316.510997,428.67027 317.261622,428.635325 317.855149,428.565432 C318.448675,428.49554 319.129475,428.390703 319.897568,428.250919 L319.897568,422.694514 C319.269128,422.974082 318.570872,423.113865 317.802779,423.113865 C315.219193,423.113865 313.927419,421.785932 313.927419,419.130027 L313.927419,390.404459 C313.927419,386.770063 313.333902,383.81716 312.146849,381.545662 C310.959796,379.274164 309.423632,377.509412 307.538313,376.251351 C305.652993,374.993291 303.523312,374.137124 301.149206,373.682824 C298.7751,373.228525 296.401029,373.001378 294.026923,373.001378 C290.884724,373.001378 288.021874,373.350834 285.438288,374.049757 C282.854702,374.748679 280.602826,375.831993 278.682593,377.29973 C276.76236,378.767467 275.243653,380.654529 274.126427,382.960973 C273.0092,385.267417 272.345857,387.993173 272.136377,391.138324 Z M307.328834,399.106 L307.328834,407.702703 C307.328834,410.358608 306.822598,412.734908 305.810112,414.831676 C304.797625,416.928443 303.436026,418.710668 301.725273,420.178405 C300.01452,421.646142 298.007034,422.764402 295.702754,423.533216 C293.398475,424.302031 290.989491,424.686432 288.475732,424.686432 C286.939546,424.686432 285.438295,424.441813 283.971935,423.952568 C282.505576,423.463322 281.213802,422.746937 280.096576,421.803392 C278.979349,420.859847 278.089073,419.741588 277.42572,418.448581 C276.762366,417.155575 276.430695,415.670387 276.430695,413.992973 C276.430695,411.337068 277.216233,409.29275 278.787333,407.859959 C280.358432,406.427169 282.365918,405.326382 284.809851,404.557568 C287.253784,403.788753 289.959526,403.212151 292.927159,402.827743 C295.894792,402.443336 298.775098,402.006516 301.568164,401.51727 C302.47591,401.377486 303.523294,401.132867 304.710347,400.783405 C305.8974,400.433944 306.700395,399.874815 307.119355,399.106 L307.328834,399.106 Z M337.598536,374.573946 L337.598536,358.324081 L330.99995,358.324081 L330.99995,374.573946 L321.5734,374.573946 L321.5734,380.130351 L330.99995,380.130351 L330.99995,417.138108 C330.930124,421.750996 331.768031,424.913573 333.513697,426.625932 C335.259364,428.338292 338.33169,429.194459 342.730769,429.194459 C343.708342,429.194459 344.685901,429.159514 345.663474,429.089622 C346.641047,429.019729 347.618606,428.984784 348.596179,428.984784 L348.596179,423.428378 C346.710859,423.638055 344.825568,423.742892 342.940248,423.742892 C340.566142,423.603107 339.082348,422.921668 338.488821,421.698554 C337.895295,420.47544 337.598536,418.780578 337.598536,416.613919 L337.598536,380.130351 L348.596179,380.130351 L348.596179,374.573946 L337.598536,374.573946 Z M380.96067,378.557784 C384.102869,378.557784 386.860981,379.22175 389.235087,380.549703 C391.609193,381.877655 393.581766,383.624935 395.152866,385.791595 C396.723966,387.958254 397.911001,390.421919 398.714007,393.182662 C399.517014,395.943406 399.918511,398.756526 399.918511,401.622108 C399.918511,404.48769 399.517014,407.300811 398.714007,410.061554 C397.911001,412.822298 396.723966,415.285962 395.152866,417.452622 C393.581766,419.619281 391.609193,421.366561 389.235087,422.694514 C386.860981,424.022466 384.102869,424.686432 380.96067,424.686432 C377.818471,424.686432 375.060359,424.022466 372.686253,422.694514 C370.312147,421.366561 368.339574,419.619281 366.768474,417.452622 C365.197374,415.285962 364.010339,412.822298 363.207333,410.061554 C362.404326,407.300811 362.002829,404.48769 362.002829,401.622108 C362.002829,398.756526 362.404326,395.943406 363.207333,393.182662 C364.010339,390.421919 365.197374,387.958254 366.768474,385.791595 C368.339574,383.624935 370.312147,381.877655 372.686253,380.549703 C375.060359,379.22175 377.818471,378.557784 380.96067,378.557784 Z M380.96067,373.001378 C376.840898,373.001378 373.19251,373.770182 370.015397,375.307811 C366.838284,376.84544 364.167455,378.90723 362.002829,381.493243 C359.838203,384.079256 358.197301,387.10205 357.080074,390.561716 C355.962848,394.021382 355.404243,397.708143 355.404243,401.622108 C355.404243,405.536074 355.962848,409.222834 357.080074,412.6825 C358.197301,416.142166 359.838203,419.16496 362.002829,421.750973 C364.167455,424.336986 366.838284,426.381303 370.015397,427.883986 C373.19251,429.38667 376.840898,430.138 380.96067,430.138 C385.080442,430.138 388.72883,429.38667 391.905943,427.883986 C395.083056,426.381303 397.753885,424.336986 399.918511,421.750973 C402.083137,419.16496 403.724039,416.142166 404.841266,412.6825 C405.958492,409.222834 406.517097,405.536074 406.517097,401.622108 C406.517097,397.708143 405.958492,394.021382 404.841266,390.561716 C403.724039,387.10205 402.083137,384.079256 399.918511,381.493243 C397.753885,378.90723 395.083056,376.84544 391.905943,375.307811 C388.72883,373.770182 385.080442,373.001378 380.96067,373.001378 Z M416.362605,374.573946 L416.362605,428.67027 L422.961191,428.67027 L422.961191,399.839865 C422.961191,396.974283 423.44997,394.33589 424.427543,391.924608 C425.405117,389.513326 426.784172,387.434063 428.564752,385.686757 C430.345331,383.939451 432.457556,382.594045 434.901489,381.6505 C437.345422,380.706955 440.06862,380.30508 443.071166,380.444865 L443.071166,373.840081 C438.183301,373.630404 433.976308,374.713718 430.450062,377.090054 C426.923816,379.46639 424.322812,382.856113 422.646973,387.259324 L422.437494,387.259324 L422.437494,374.573946 L416.362605,374.573946 Z" id="inator" fill="lightskyblue"></path>
    </g>
</svg>