<?xml version="1.0" encoding="UTF-8"?>
<svg width="704px" height="789px" viewBox="0 0 704 789" version="1.1" xmlns="http://www.w3.org/2000/svg" xmlns:xlink="http://www.w3.org/1999/xlink">
    <!-- Generator: Sketch 63.1 (92452) - https://sketch.com -->
    <title>Untitled 10</title>
    <desc>Created with Sketch.</desc>
    <g id="Page-1" stroke="none" stroke-width="1" fill="none" fill-rule="evenodd">
        <rect id="Rectangle" fill="#EEEEEE" x="0" y="0" width="704" height="789"></rect>
        <rect id="Rectangle" fill-opacity="0.5" fill="#32C5FF" x="34" y="32" width="637" height="291"></rect>
        <rect id="Rectangle-Copy" fill-opacity="0.5" fill="#F7B500" x="34" y="407" width="637" height="348"></rect>
        <text id="DOM" font-family="Helvetica-Bold, Helvetica" font-size="24" font-weight="bold" fill="#000000">
            <tspan x="319.003906" y="65">DOM</tspan>
        </text>
        <text id="Registry" font-family="Helvetica-Bold, Helvetica" font-size="24" font-weight="bold" fill="#000000">
            <tspan x="298.482422" y="440">Registry</tspan>
        </text>
        <rect id="Rectangle" stroke="#000000" stroke-width="2" fill="#D8D8D8" x="420" y="100" width="146" height="49" rx="8"></rect>
        <text id="Button" font-family="Helvetica" font-size="24" font-weight="normal" fill="#000000">
            <tspan x="458.306641" y="133">Button</tspan>
        </text>
        <rect id="Rectangle" stroke="#000000" stroke-width="2" fill="#FFFFFF" x="129" y="100" width="258" height="49"></rect>
        <text id="Button-Copy" font-family="Helvetica" font-size="24" font-weight="normal" fill="#000000">
            <tspan x="144" y="133">Juanita Citizen</tspan>
        </text>
        <text id="{-user:-{-name:-“Jua" font-family="Monaco" font-size="21" font-weight="normal" fill="#000000" style="white-space: pre">
            <tspan x="60" y="496">{</tspan>
            <tspan x="60" y="522">  user: {</tspan>
            <tspan x="60" y="548">    name: “Juanita Citizen”</tspan>
            <tspan x="60" y="574">	},</tspan>
            <tspan x="60" y="600">  app: {</tspan>
            <tspan x="60" y="626">    actions: {</tspan>
            <tspan x="60" y="652">      doStuff: () =&gt; alert(‘hello’)</tspan>
            <tspan x="60" y="678">    }</tspan>
            <tspan x="60" y="704">  }</tspan>
            <tspan x="60" y="730">}</tspan>
        </text>
        <text id="&lt;input-data-bind=“va" font-family="Monaco" font-size="21" font-weight="normal" fill="#000000" style="white-space: pre">
            <tspan x="62" y="206">&lt;input data-bind=“value=user.name”&gt;</tspan>
            <tspan x="62" y="232">&lt;button</tspan>
            <tspan x="62" y="258">  data-event=“click:app.doStuff”</tspan>
            <tspan x="62" y="284">&gt;Button&lt;/button&gt;</tspan>
        </text>
        <text id="user.name" font-family="Monaco" font-size="21" font-weight="normal" fill="#000000">
            <tspan x="117.290771" y="375">user.name</tspan>
        </text>
        <text id="app.actions.doStuff" font-family="Monaco" font-size="21" font-weight="normal" fill="#000000">
            <tspan x="367.780518" y="375">app.actions.doStuff</tspan>
        </text>
        <path id="Line" d="M420.933335,217.250559 L409.205977,234.962676 L405.214,228.029 L199.281,346.57 L203.272773,353.504058 L182.066665,354.749441 L193.794023,337.037324 L197.785,343.97 L403.718,225.429 L399.727227,218.495942 L420.933335,217.250559 Z" fill="#E02020" fill-rule="nonzero"></path>
        <path id="Line-Copy-2" d="M420.18822,270.109112 L439.462721,279.039041 L433.208,284.027 L477.136,339.102 L483.391023,334.11333 L487.81178,354.890888 L468.537279,345.960959 L474.791,340.972 L430.863,285.897 L424.608977,290.88667 L420.18822,270.109112 Z" fill="#E02020" fill-rule="nonzero"></path>
        <path id="Line-Copy-3" d="M482.386401,384.682676 L473.732315,404.082594 L468.655,397.899 L228.748,594.918 L233.825985,601.100642 L213.113599,605.817324 L221.767685,586.417406 L226.844,592.6 L466.751,395.581 L461.674015,389.399358 L482.386401,384.682676 Z" fill="#E02020" fill-rule="nonzero"></path>
        <path id="Line-Copy" d="M182.111653,384.512626 L187.128949,405.154252 L179.33,403.368 L156.093,504.801 L163.891271,506.588562 L150.388347,522.987374 L145.371051,502.345748 L153.169,504.131 L176.406,402.698 L168.608729,400.911438 L182.111653,384.512626 Z" fill="#E02020" fill-rule="nonzero"></path>
    </g>
</svg>